<?xml version="1.0" standalone="no"?>
<!DOCTYPE svg PUBLIC "-//W3C//DTD SVG 20010904//EN"
 "http://www.w3.org/TR/2001/REC-SVG-20010904/DTD/svg10.dtd">
<svg version="1.0" xmlns="http://www.w3.org/2000/svg"
 width="2782.000000pt" height="2782.000000pt" viewBox="0 0 2782.000000 2782.000000"
 preserveAspectRatio="xMidYMid meet">
<metadata>
Created by potrace 1.11, written by Peter Selinger 2001-2013
</metadata>
<g transform="translate(0.000000,2782.000000) scale(0.100000,-0.100000)"
fill="#000000" stroke="none">
<path d="M13448 27815 c-2 -2 -77 -6 -168 -9 -91 -4 -187 -9 -215 -11 -27 -2
-88 -6 -135 -10 -88 -6 -147 -10 -240 -19 -30 -3 -91 -8 -135 -11 -44 -4 -91
-8 -105 -11 -14 -2 -52 -6 -85 -9 -33 -3 -91 -10 -130 -15 -38 -5 -89 -12
-112 -15 -97 -12 -124 -15 -255 -35 -141 -20 -185 -27 -228 -35 -14 -3 -41 -7
-60 -10 -19 -3 -71 -12 -115 -20 -44 -8 -96 -17 -115 -20 -19 -3 -42 -8 -50
-10 -8 -2 -31 -7 -50 -10 -61 -10 -284 -56 -290 -60 -3 -2 -21 -6 -40 -9 -19
-3 -75 -15 -125 -27 -49 -11 -97 -22 -105 -24 -32 -6 -347 -86 -376 -96 -17
-5 -40 -11 -50 -13 -90 -18 -585 -169 -854 -261 -228 -78 -633 -229 -725 -270
-16 -8 -100 -43 -185 -79 -85 -35 -177 -75 -205 -87 -27 -13 -52 -24 -55 -24
-3 -1 -34 -15 -70 -32 -36 -17 -87 -41 -115 -53 -76 -34 -538 -263 -640 -318
-184 -98 -272 -146 -343 -189 -41 -24 -75 -43 -78 -43 -2 0 -79 -45 -170 -100
-91 -55 -170 -100 -175 -100 -5 0 -9 -4 -9 -10 0 -5 -4 -10 -10 -10 -9 0 -53
-27 -240 -148 -629 -407 -1203 -845 -1764 -1347 -36 -32 -209 -191 -257 -236
-155 -145 -501 -495 -709 -718 -24 -26 -294 -333 -321 -365 -13 -16 -29 -34
-34 -40 -28 -29 -214 -257 -316 -386 -267 -337 -544 -726 -803 -1128 -36 -56
-66 -107 -66 -111 0 -5 -3 -11 -8 -13 -6 -3 -129 -201 -182 -293 -9 -16 -31
-52 -47 -80 -27 -46 -135 -238 -210 -375 -50 -91 -236 -450 -238 -460 -1 -3
-29 -61 -62 -130 -66 -134 -143 -300 -143 -305 0 -5 -59 -136 -70 -156 -20
-37 -146 -347 -242 -594 -108 -279 -193 -525 -308 -890 -190 -603 -391 -1516
-474 -2150 -3 -22 -12 -92 -20 -155 -23 -173 -50 -433 -61 -585 -2 -33 -7 -82
-9 -110 -3 -27 -8 -97 -12 -155 -3 -58 -7 -130 -9 -160 -23 -341 -23 -1121 0
-1517 10 -185 17 -282 20 -313 2 -19 6 -75 10 -125 3 -49 8 -101 10 -115 2
-14 6 -56 10 -95 11 -131 38 -354 65 -540 6 -44 13 -91 15 -105 2 -14 13 -85
25 -157 151 -977 441 -2024 828 -2988 499 -1244 1226 -2480 2071 -3525 75 -93
339 -407 366 -436 5 -6 44 -49 85 -95 419 -469 889 -928 1368 -1337 1844
-1576 4114 -2656 6487 -3088 65 -12 228 -40 405 -69 78 -13 449 -61 575 -75
165 -18 180 -20 360 -35 39 -3 88 -8 110 -10 22 -2 94 -7 160 -10 66 -4 131
-8 145 -11 45 -7 522 -18 770 -18 253 0 758 12 769 18 3 2 67 7 141 11 74 3
146 8 160 10 14 1 68 6 120 10 52 3 106 8 120 10 14 2 59 7 100 10 41 3 89 8
105 10 17 2 53 7 80 10 1098 124 2147 373 3225 766 74 27 144 53 155 58 11 5
81 33 155 62 141 54 408 166 520 217 36 16 112 51 170 77 302 136 786 387
1120 580 871 503 1706 1113 2439 1784 319 290 743 720 1017 1031 17 19 53 60
80 90 40 45 138 160 276 325 9 11 51 63 93 115 42 52 83 103 91 113 8 10 76
100 152 200 434 571 770 1091 1156 1787 63 113 426 850 426 864 0 2 20 47 45
100 25 53 45 99 45 102 0 3 13 34 29 69 17 35 76 180 132 322 56 142 105 267
110 278 75 171 381 1136 424 1335 2 8 21 87 44 175 37 149 67 273 77 320 2 11
6 29 8 40 10 46 46 219 50 241 3 13 7 32 10 42 3 9 8 33 10 52 3 19 8 46 10
60 11 49 16 75 21 105 3 17 7 40 9 51 2 12 7 38 10 58 12 75 18 111 20 121 2
6 6 33 10 60 11 70 13 85 20 125 3 19 8 51 10 70 9 68 37 275 41 300 2 14 7
54 11 90 4 36 8 76 10 90 2 14 6 59 10 100 4 41 8 89 10 105 2 17 6 59 9 95 3
36 7 83 10 105 4 37 10 134 20 300 27 439 27 1338 0 1675 -1 25 -6 92 -10 150
-3 58 -8 123 -10 145 -3 22 -7 72 -10 110 -4 39 -8 93 -11 120 -3 28 -7 68 -9
90 -4 47 -13 126 -30 263 -2 20 -9 75 -16 122 -6 47 -13 99 -15 115 -2 17 -6
44 -8 60 -3 17 -12 77 -21 135 -8 58 -17 116 -20 130 -2 14 -9 54 -15 90 -11
66 -24 137 -41 220 -5 25 -11 61 -14 80 -4 19 -18 89 -32 155 -14 66 -27 130
-29 143 -3 13 -18 83 -35 155 -17 73 -32 139 -34 147 -11 45 -47 190 -55 220
-5 19 -37 134 -70 255 -153 554 -404 1273 -596 1703 -13 29 -24 55 -24 57 0 2
-11 28 -24 57 -13 29 -59 130 -101 223 -74 163 -327 676 -375 760 -29 51 -100
183 -114 212 -6 13 -14 23 -18 23 -5 0 -8 5 -8 11 0 6 -41 81 -91 167 -51 86
-97 166 -103 177 -6 11 -18 31 -27 45 -9 14 -49 79 -90 145 -40 66 -77 122
-81 123 -5 2 -8 8 -8 13 0 31 -573 854 -715 1026 -5 7 -15 18 -20 25 -86 111
-161 204 -165 208 -3 3 -21 25 -40 50 -19 25 -37 47 -40 50 -3 3 -25 30 -50
60 -25 30 -47 57 -50 60 -3 3 -30 34 -60 70 -30 36 -57 67 -60 70 -3 3 -36 41
-75 85 -38 44 -72 82 -75 85 -3 3 -23 25 -44 50 -200 231 -882 915 -1033 1035
-14 11 -39 34 -57 50 -39 38 -224 198 -341 295 -49 41 -99 83 -110 92 -11 9
-94 75 -185 147 -91 72 -169 134 -175 138 -5 5 -26 19 -45 33 -19 13 -37 27
-40 30 -16 17 -358 264 -465 335 -49 33 -92 63 -95 66 -14 16 -426 280 -610
391 -145 87 -370 218 -376 218 -3 0 -21 10 -42 23 -36 23 -80 48 -247 137
-154 83 -736 370 -750 370 -2 0 -41 17 -87 39 -45 21 -112 51 -148 66 -77 32
-110 46 -170 73 -62 27 -364 146 -480 189 -52 19 -122 45 -155 58 -142 54
-754 254 -830 271 -5 1 -59 16 -120 34 -96 28 -576 152 -637 164 -13 3 -66 14
-118 26 -242 54 -664 133 -875 165 -22 3 -51 8 -65 10 -37 6 -245 34 -298 41
-26 3 -58 7 -72 9 -14 2 -50 7 -80 10 -30 4 -71 8 -90 11 -19 2 -64 6 -100 9
-36 3 -81 8 -100 10 -19 3 -66 7 -105 10 -38 3 -90 8 -115 10 -50 5 -143 11
-300 21 -58 3 -130 8 -160 10 -66 5 -1127 13 -1132 9z"/>
</g>
</svg>
